<mxfile host="app.diagrams.net" modified="2024-04-25T18:56:03.699Z" agent="Mozilla/5.0 (Windows NT 10.0; Win64; x64) AppleWebKit/537.36 (KHTML, like Gecko) Chrome/124.0.0.0 Safari/537.36" etag="5FgIAZ6Y7lv-Rnmvqku5" version="24.3.0" type="device">
  <diagram name="PÃ¡gina-1" id="aL-b7FHNzI68aJi1quNg">
    <mxGraphModel dx="1050" dy="565" grid="1" gridSize="10" guides="1" tooltips="1" connect="1" arrows="1" fold="1" page="1" pageScale="1" pageWidth="827" pageHeight="1169" math="0" shadow="0">
      <root>
        <mxCell id="0" />
        <mxCell id="1" parent="0" />
        <mxCell id="qqhbRhjh_DlPzkbGYmfv-4" style="edgeStyle=orthogonalEdgeStyle;rounded=0;orthogonalLoop=1;jettySize=auto;html=1;exitX=0.25;exitY=1;exitDx=0;exitDy=0;" edge="1" parent="1" source="qqhbRhjh_DlPzkbGYmfv-1" target="qqhbRhjh_DlPzkbGYmfv-2">
          <mxGeometry relative="1" as="geometry" />
        </mxCell>
        <mxCell id="qqhbRhjh_DlPzkbGYmfv-5" style="edgeStyle=orthogonalEdgeStyle;rounded=0;orthogonalLoop=1;jettySize=auto;html=1;exitX=0.75;exitY=1;exitDx=0;exitDy=0;entryX=0.5;entryY=0;entryDx=0;entryDy=0;" edge="1" parent="1" source="qqhbRhjh_DlPzkbGYmfv-1" target="qqhbRhjh_DlPzkbGYmfv-3">
          <mxGeometry relative="1" as="geometry" />
        </mxCell>
        <mxCell id="qqhbRhjh_DlPzkbGYmfv-1" value="(0,0)" style="rounded=1;whiteSpace=wrap;html=1;" vertex="1" parent="1">
          <mxGeometry x="360" y="40" width="80" height="40" as="geometry" />
        </mxCell>
        <mxCell id="qqhbRhjh_DlPzkbGYmfv-8" style="edgeStyle=orthogonalEdgeStyle;rounded=0;orthogonalLoop=1;jettySize=auto;html=1;exitX=0.75;exitY=1;exitDx=0;exitDy=0;" edge="1" parent="1" source="qqhbRhjh_DlPzkbGYmfv-2" target="qqhbRhjh_DlPzkbGYmfv-7">
          <mxGeometry relative="1" as="geometry" />
        </mxCell>
        <mxCell id="qqhbRhjh_DlPzkbGYmfv-10" style="edgeStyle=orthogonalEdgeStyle;rounded=0;orthogonalLoop=1;jettySize=auto;html=1;exitX=0;exitY=1;exitDx=0;exitDy=0;entryX=0.5;entryY=0;entryDx=0;entryDy=0;" edge="1" parent="1" source="qqhbRhjh_DlPzkbGYmfv-2" target="qqhbRhjh_DlPzkbGYmfv-6">
          <mxGeometry relative="1" as="geometry" />
        </mxCell>
        <mxCell id="qqhbRhjh_DlPzkbGYmfv-2" value="(3,0)" style="rounded=1;whiteSpace=wrap;html=1;" vertex="1" parent="1">
          <mxGeometry x="300" y="120" width="80" height="40" as="geometry" />
        </mxCell>
        <mxCell id="qqhbRhjh_DlPzkbGYmfv-13" style="edgeStyle=orthogonalEdgeStyle;rounded=0;orthogonalLoop=1;jettySize=auto;html=1;exitX=0.25;exitY=1;exitDx=0;exitDy=0;" edge="1" parent="1" source="qqhbRhjh_DlPzkbGYmfv-3" target="qqhbRhjh_DlPzkbGYmfv-11">
          <mxGeometry relative="1" as="geometry" />
        </mxCell>
        <mxCell id="qqhbRhjh_DlPzkbGYmfv-14" style="edgeStyle=orthogonalEdgeStyle;rounded=0;orthogonalLoop=1;jettySize=auto;html=1;exitX=1;exitY=1;exitDx=0;exitDy=0;" edge="1" parent="1" source="qqhbRhjh_DlPzkbGYmfv-3" target="qqhbRhjh_DlPzkbGYmfv-12">
          <mxGeometry relative="1" as="geometry" />
        </mxCell>
        <mxCell id="qqhbRhjh_DlPzkbGYmfv-3" value="(0,4)" style="rounded=1;whiteSpace=wrap;html=1;" vertex="1" parent="1">
          <mxGeometry x="420" y="120" width="80" height="40" as="geometry" />
        </mxCell>
        <mxCell id="qqhbRhjh_DlPzkbGYmfv-6" value="(3,4)" style="rounded=1;whiteSpace=wrap;html=1;" vertex="1" parent="1">
          <mxGeometry x="180" y="200" width="80" height="40" as="geometry" />
        </mxCell>
        <mxCell id="qqhbRhjh_DlPzkbGYmfv-16" style="edgeStyle=orthogonalEdgeStyle;rounded=0;orthogonalLoop=1;jettySize=auto;html=1;exitX=0.5;exitY=1;exitDx=0;exitDy=0;" edge="1" parent="1" source="qqhbRhjh_DlPzkbGYmfv-7" target="qqhbRhjh_DlPzkbGYmfv-15">
          <mxGeometry relative="1" as="geometry" />
        </mxCell>
        <mxCell id="qqhbRhjh_DlPzkbGYmfv-7" value="(0,3)" style="rounded=1;whiteSpace=wrap;html=1;" vertex="1" parent="1">
          <mxGeometry x="310" y="200" width="80" height="40" as="geometry" />
        </mxCell>
        <mxCell id="qqhbRhjh_DlPzkbGYmfv-11" value="(3,4)" style="rounded=1;whiteSpace=wrap;html=1;" vertex="1" parent="1">
          <mxGeometry x="410" y="200" width="80" height="40" as="geometry" />
        </mxCell>
        <mxCell id="qqhbRhjh_DlPzkbGYmfv-27" style="edgeStyle=orthogonalEdgeStyle;rounded=0;orthogonalLoop=1;jettySize=auto;html=1;exitX=0.5;exitY=1;exitDx=0;exitDy=0;" edge="1" parent="1" source="qqhbRhjh_DlPzkbGYmfv-12" target="qqhbRhjh_DlPzkbGYmfv-23">
          <mxGeometry relative="1" as="geometry" />
        </mxCell>
        <mxCell id="qqhbRhjh_DlPzkbGYmfv-12" value="(3,1)" style="rounded=1;whiteSpace=wrap;html=1;" vertex="1" parent="1">
          <mxGeometry x="530" y="200" width="80" height="40" as="geometry" />
        </mxCell>
        <mxCell id="qqhbRhjh_DlPzkbGYmfv-18" style="edgeStyle=orthogonalEdgeStyle;rounded=0;orthogonalLoop=1;jettySize=auto;html=1;exitX=0.5;exitY=1;exitDx=0;exitDy=0;" edge="1" parent="1" source="qqhbRhjh_DlPzkbGYmfv-15" target="qqhbRhjh_DlPzkbGYmfv-17">
          <mxGeometry relative="1" as="geometry" />
        </mxCell>
        <mxCell id="qqhbRhjh_DlPzkbGYmfv-15" value="(3,3)" style="rounded=1;whiteSpace=wrap;html=1;" vertex="1" parent="1">
          <mxGeometry x="310" y="280" width="80" height="40" as="geometry" />
        </mxCell>
        <mxCell id="qqhbRhjh_DlPzkbGYmfv-21" style="edgeStyle=orthogonalEdgeStyle;rounded=0;orthogonalLoop=1;jettySize=auto;html=1;exitX=0.5;exitY=1;exitDx=0;exitDy=0;" edge="1" parent="1" source="qqhbRhjh_DlPzkbGYmfv-17" target="qqhbRhjh_DlPzkbGYmfv-19">
          <mxGeometry relative="1" as="geometry" />
        </mxCell>
        <mxCell id="qqhbRhjh_DlPzkbGYmfv-17" value="(2,4)" style="rounded=1;whiteSpace=wrap;html=1;" vertex="1" parent="1">
          <mxGeometry x="310" y="360" width="80" height="40" as="geometry" />
        </mxCell>
        <mxCell id="qqhbRhjh_DlPzkbGYmfv-22" style="edgeStyle=orthogonalEdgeStyle;rounded=0;orthogonalLoop=1;jettySize=auto;html=1;exitX=0.5;exitY=1;exitDx=0;exitDy=0;" edge="1" parent="1" source="qqhbRhjh_DlPzkbGYmfv-19" target="qqhbRhjh_DlPzkbGYmfv-20">
          <mxGeometry relative="1" as="geometry" />
        </mxCell>
        <mxCell id="qqhbRhjh_DlPzkbGYmfv-19" value="(2,0)" style="rounded=1;whiteSpace=wrap;html=1;" vertex="1" parent="1">
          <mxGeometry x="310" y="440" width="80" height="40" as="geometry" />
        </mxCell>
        <mxCell id="qqhbRhjh_DlPzkbGYmfv-20" value="(0,2)" style="rounded=1;whiteSpace=wrap;html=1;" vertex="1" parent="1">
          <mxGeometry x="310" y="520" width="80" height="40" as="geometry" />
        </mxCell>
        <mxCell id="qqhbRhjh_DlPzkbGYmfv-28" style="edgeStyle=orthogonalEdgeStyle;rounded=0;orthogonalLoop=1;jettySize=auto;html=1;exitX=0.5;exitY=1;exitDx=0;exitDy=0;" edge="1" parent="1" source="qqhbRhjh_DlPzkbGYmfv-23" target="qqhbRhjh_DlPzkbGYmfv-24">
          <mxGeometry relative="1" as="geometry" />
        </mxCell>
        <mxCell id="qqhbRhjh_DlPzkbGYmfv-23" value="(0,1)" style="rounded=1;whiteSpace=wrap;html=1;" vertex="1" parent="1">
          <mxGeometry x="530" y="280" width="80" height="40" as="geometry" />
        </mxCell>
        <mxCell id="qqhbRhjh_DlPzkbGYmfv-29" style="edgeStyle=orthogonalEdgeStyle;rounded=0;orthogonalLoop=1;jettySize=auto;html=1;exitX=0.5;exitY=1;exitDx=0;exitDy=0;" edge="1" parent="1" source="qqhbRhjh_DlPzkbGYmfv-24" target="qqhbRhjh_DlPzkbGYmfv-25">
          <mxGeometry relative="1" as="geometry" />
        </mxCell>
        <mxCell id="qqhbRhjh_DlPzkbGYmfv-24" value="(1,0)" style="rounded=1;whiteSpace=wrap;html=1;" vertex="1" parent="1">
          <mxGeometry x="530" y="360" width="80" height="40" as="geometry" />
        </mxCell>
        <mxCell id="qqhbRhjh_DlPzkbGYmfv-30" style="edgeStyle=orthogonalEdgeStyle;rounded=0;orthogonalLoop=1;jettySize=auto;html=1;exitX=0.5;exitY=1;exitDx=0;exitDy=0;entryX=0.5;entryY=0;entryDx=0;entryDy=0;" edge="1" parent="1" source="qqhbRhjh_DlPzkbGYmfv-25" target="qqhbRhjh_DlPzkbGYmfv-26">
          <mxGeometry relative="1" as="geometry" />
        </mxCell>
        <mxCell id="qqhbRhjh_DlPzkbGYmfv-25" value="(1,4)" style="rounded=1;whiteSpace=wrap;html=1;" vertex="1" parent="1">
          <mxGeometry x="530" y="440" width="80" height="40" as="geometry" />
        </mxCell>
        <mxCell id="qqhbRhjh_DlPzkbGYmfv-26" value="(3,2)" style="rounded=1;whiteSpace=wrap;html=1;" vertex="1" parent="1">
          <mxGeometry x="530" y="520" width="80" height="40" as="geometry" />
        </mxCell>
      </root>
    </mxGraphModel>
  </diagram>
</mxfile>
